<?xml version="1.0" encoding="UTF-8"?>
<!-- Generator: Adobe Illustrator 15.0.0, SVG Export Plug-In . SVG Version: 6.00 Build 0)  -->
<!DOCTYPE svg PUBLIC "-//W3C//DTD SVG 1.1//EN" "http://www.w3.org/Graphics/SVG/1.1/DTD/svg11.dtd">
<svg version="1.1" id="Layer_1" xmlns="http://www.w3.org/2000/svg" xmlns:xlink="http://www.w3.org/1999/xlink" x="0px" y="0px" width="37.009px" height="37.009px" viewBox="0 0 37.009 37.009" enable-background="new 0 0 37.009 37.009" xml:space="preserve">
<path fill-rule="evenodd" clip-rule="evenodd" fill="#3296BD" d="M0,0h37.009v37.009H0V0z"/>
<path fill="#FFFFFF" d="M28.086,20.815v6.551h-4.088v-6.078c0-1.652-0.686-2.781-2.164-2.781c-1.129,0-2.271,0.759-2.566,1.496  c-0.107,0.262-0.135,0.629-0.135,0.996v6.367h-4.089c0,0,0.056-10.892,0-12.046h4.088v1.993c-0.009,0.013-0.019,0.027-0.026,0.04  h0.026v-0.04c0.544-0.837,1.981-2.031,4.153-2.031C25.975,15.282,28.086,17.039,28.086,20.815z M11.236,9.643  c-1.399,0-2.313,0.918-2.313,2.124c0,1.181,0.888,2.126,2.259,2.126h0.027c1.426,0,2.313-0.945,2.313-2.126  C13.495,10.561,12.635,9.643,11.236,9.643z M9.04,27.366h4.056V15.32H9.04V27.366z"/>
</svg>