<?xml version="1.0" encoding="UTF-8"?>
<!-- Generator: Adobe Illustrator 15.0.0, SVG Export Plug-In . SVG Version: 6.00 Build 0)  -->
<!DOCTYPE svg PUBLIC "-//W3C//DTD SVG 1.1//EN" "http://www.w3.org/Graphics/SVG/1.1/DTD/svg11.dtd">
<svg version="1.1" id="Layer_1" xmlns="http://www.w3.org/2000/svg" xmlns:xlink="http://www.w3.org/1999/xlink" x="0px" y="0px" width="37.009px" height="37.009px" viewBox="0 0 37.009 37.009" enable-background="new 0 0 37.009 37.009" xml:space="preserve">
<path fill-rule="evenodd" clip-rule="evenodd" fill="#35A9E0" d="M0,0h37.009v37.009H0V0z"/>
<path fill="#FFFFFF" d="M28.096,10.562c-0.807,0.477-1.697,0.823-2.646,1.011c-0.76-0.811-1.842-1.315-3.039-1.315  c-2.301,0-4.166,1.865-4.166,4.164c0,0.326,0.037,0.645,0.108,0.948c-3.461-0.173-6.53-1.832-8.584-4.352  c-0.358,0.614-0.563,1.33-0.563,2.094c0,1.445,0.736,2.721,1.852,3.466c-0.683-0.022-1.324-0.21-1.886-0.522v0.052  c0,2.019,1.436,3.701,3.34,4.085c-0.349,0.094-0.717,0.146-1.097,0.146c-0.269,0-0.529-0.027-0.784-0.076  c0.53,1.654,2.068,2.857,3.89,2.893c-1.425,1.117-3.221,1.781-5.172,1.781c-0.336,0-0.668-0.02-0.994-0.057  c1.843,1.182,4.031,1.871,6.384,1.871c7.66,0,11.85-6.346,11.85-11.85l-0.014-0.539c0.816-0.585,1.523-1.319,2.08-2.153  c-0.746,0.331-1.549,0.556-2.391,0.656C27.123,12.349,27.783,11.532,28.096,10.562z"/>
</svg>