<?xml version="1.0" encoding="UTF-8"?>
<!-- Generator: Adobe Illustrator 15.0.0, SVG Export Plug-In . SVG Version: 6.00 Build 0)  -->
<!DOCTYPE svg PUBLIC "-//W3C//DTD SVG 1.1//EN" "http://www.w3.org/Graphics/SVG/1.1/DTD/svg11.dtd">
<svg version="1.1" id="Layer_1" xmlns="http://www.w3.org/2000/svg" xmlns:xlink="http://www.w3.org/1999/xlink" x="0px" y="0px" width="37.009px" height="37.009px" viewBox="0 0 37.009 37.009" enable-background="new 0 0 37.009 37.009" xml:space="preserve">
<path fill-rule="evenodd" clip-rule="evenodd" fill="#EF3C3B" d="M0,0h37.009v37.009H0V0z"/>
<path fill="#FFFFFF" d="M25.419,24.058h-1.316l0.006-0.766c0-0.34,0.279-0.617,0.62-0.617h0.084c0.341,0,0.621,0.277,0.621,0.617  L25.419,24.058z M20.48,22.417c-0.334,0-0.607,0.225-0.607,0.5v3.719c0,0.275,0.273,0.498,0.607,0.498  c0.335,0,0.609-0.223,0.609-0.498v-3.719C21.09,22.642,20.815,22.417,20.48,22.417z M28.499,20.337v7.076  c0,1.697-1.471,3.086-3.27,3.086H11.78c-1.799,0-3.271-1.389-3.271-3.086v-7.076c0-1.697,1.472-3.085,3.271-3.085h13.449  C27.028,17.251,28.499,18.64,28.499,20.337z M12.678,28.181l-0.001-7.453l1.667,0.002v-1.105l-4.444-0.006v1.086l1.388,0.004v7.473  H12.678z M17.675,21.839h-1.39v3.979c0,0.576,0.035,0.863-0.002,0.965c-0.113,0.309-0.621,0.637-0.819,0.033  c-0.033-0.105-0.004-0.424-0.005-0.971l-0.005-4.006h-1.383l0.005,3.943c0.001,0.605-0.014,1.055,0.004,1.26  c0.034,0.363,0.022,0.783,0.358,1.025c0.625,0.449,1.823-0.066,2.123-0.711l-0.002,0.822h1.116L17.675,21.839L17.675,21.839z   M22.122,26.396l-0.003-3.313c-0.002-1.262-0.946-2.018-2.228-0.996l0.006-2.463l-1.389,0.002l-0.007,8.5l1.142-0.018l0.104-0.529  C21.207,28.919,22.124,28.001,22.122,26.396z M26.472,25.956l-1.043,0.006c0,0.041-0.002,0.09-0.002,0.141v0.582  c0,0.311-0.258,0.564-0.569,0.564h-0.204c-0.313,0-0.57-0.254-0.57-0.564V26.62v-0.641v-0.824h2.387v-0.898  c0-0.656-0.018-1.313-0.071-1.688c-0.171-1.188-1.837-1.377-2.679-0.768c-0.265,0.189-0.466,0.443-0.583,0.785  c-0.118,0.34-0.178,0.807-0.178,1.4v1.975C22.96,29.245,26.947,28.78,26.472,25.956z M21.126,15.234  c0.071,0.175,0.183,0.316,0.334,0.423c0.149,0.104,0.34,0.157,0.568,0.157c0.201,0,0.378-0.054,0.533-0.165  c0.153-0.111,0.283-0.277,0.39-0.499l-0.026,0.545h1.55V9.106h-1.22v5.128c0,0.278-0.229,0.506-0.509,0.506  c-0.278,0-0.508-0.228-0.508-0.506V9.106h-1.272v4.444c0,0.566,0.01,0.943,0.027,1.135C21.011,14.875,21.054,15.057,21.126,15.234z   M16.431,11.513c0-0.633,0.053-1.127,0.157-1.482c0.105-0.355,0.295-0.641,0.569-0.855c0.274-0.216,0.624-0.324,1.051-0.324  c0.358,0,0.665,0.07,0.922,0.208c0.258,0.139,0.457,0.318,0.595,0.541c0.14,0.223,0.235,0.451,0.286,0.686  c0.052,0.237,0.078,0.596,0.078,1.079v1.666c0,0.611-0.025,1.062-0.072,1.347c-0.048,0.286-0.148,0.552-0.306,0.801  c-0.154,0.246-0.354,0.431-0.597,0.548c-0.244,0.118-0.524,0.177-0.841,0.177c-0.353,0-0.65-0.049-0.896-0.15  c-0.246-0.102-0.436-0.254-0.571-0.457c-0.137-0.203-0.233-0.45-0.291-0.739c-0.059-0.288-0.086-0.721-0.086-1.299L16.431,11.513  L16.431,11.513z M17.644,14.13c0,0.373,0.278,0.678,0.616,0.678c0.339,0,0.615-0.305,0.615-0.678v-3.508  c0-0.372-0.276-0.677-0.615-0.677c-0.338,0-0.616,0.305-0.616,0.677V14.13z M13.355,15.901h1.462l0.002-5.053l1.727-4.329h-1.599  l-0.918,3.215L13.098,6.51h-1.582l1.838,4.34L13.355,15.901z"/>
</svg>